<svg width="24" height="21" viewBox="0 0 24 21" fill="none" xmlns="http://www.w3.org/2000/svg">
<path fill-rule="evenodd" clip-rule="evenodd" d="M14.5255 1.35C15.5743 0.949683 16.7207 0.881149 17.8097 1.15363L17.567 2.12373L17.8097 1.15363C18.6758 1.37033 19.4722 1.79437 20.1326 2.38491C20.9448 2.08639 21.7151 1.68237 22.4236 1.18264C22.7642 0.942365 23.2181 0.938585 23.5627 1.17315C23.9073 1.40772 24.0702 1.83143 23.9716 2.23643C23.629 3.64307 22.9423 4.93959 21.9766 6.01106C21.9917 6.17113 22 6.33448 22 6.49979C22 12.5997 19.0631 17.0748 14.8448 19.3201C10.6509 21.5523 5.29087 21.5276 0.514353 18.874C0.109544 18.6491 -0.0879018 18.1757 0.0371435 17.7298C0.162189 17.2839 0.57701 16.9822 1.03973 17.0006C2.72657 17.0677 4.39638 16.7323 5.91474 16.0328C4.41159 15.1052 3.32942 14.0041 2.57705 12.8161C1.57342 11.2314 1.19455 9.55271 1.12603 8.04521C1.0577 6.54209 1.29648 5.1887 1.54747 4.21817C1.67358 3.73057 1.80441 3.3333 1.90527 3.05433C1.95576 2.91468 1.99891 2.80421 2.03044 2.72638C2.04621 2.68745 2.05909 2.65664 2.06855 2.63439L2.08013 2.60746L2.08387 2.5989L2.08521 2.59586L2.08574 2.59465C2.08597 2.59414 2.08618 2.59366 3 2.9998L2.08618 2.59366C2.2325 2.26445 2.54457 2.03939 2.90313 2.0045C3.2617 1.9696 3.61131 2.13027 3.81835 2.42508C4.7339 3.72877 5.95763 4.78579 7.3806 5.50201L6.93101 6.39525L7.3806 5.50201C8.51245 6.07172 9.74238 6.41172 10.9997 6.50621C10.9923 5.3966 11.322 4.31052 11.9456 3.3919C12.5761 2.46303 13.4768 1.75029 14.5255 1.35ZM3.40464 5.04341C3.22095 5.84477 3.07427 6.86104 3.12396 7.9544C3.18044 9.1969 3.48907 10.5182 4.26669 11.746C5.04028 12.9675 6.31604 14.1571 8.40613 15.086C8.73794 15.2335 8.96373 15.5492 8.99603 15.9109C9.02833 16.2725 8.86206 16.6233 8.56164 16.8272C7.45069 17.5813 6.2342 18.1486 4.9601 18.5155C8.13027 19.3232 11.307 18.9375 13.9051 17.5546C17.4369 15.6748 20 11.8999 20 6.49979C20 6.29016 19.9774 6.07172 19.9367 5.85189C19.8763 5.52569 19.9816 5.19075 20.2178 4.9578C20.4406 4.73811 20.6469 4.50397 20.8357 4.2573C20.6092 4.34086 20.38 4.41758 20.1483 4.48733C19.7717 4.60075 19.3636 4.48285 19.1055 4.18607C18.6376 3.64813 18.0158 3.26686 17.3243 3.09382C16.6327 2.92078 15.9047 2.96431 15.2387 3.21851C14.5726 3.47274 14.0007 3.92538 13.6004 4.51513L13.6003 4.5152C13.1999 5.105 12.9904 5.80355 12.9999 6.51639L13.0001 6.5298H13V7.52979C13 8.07198 12.5679 8.5154 12.0259 8.52946C10.1037 8.5793 8.19898 8.15299 6.48141 7.28848C5.33584 6.71187 4.29724 5.95228 3.40464 5.04341Z" fill="white"/>
</svg>
